PathFileType	4	(X/Y/Z)	38_2_33_p1_0-486.trc
DataRate	CameraRate	NumFrames	NumMarkers	Units	OrigDataRate	OrigDataStartFrame	OrigNumFrames
55.0	55.0	4	27	m	55.0	0	487
Frame#	Time	RHip			RKnee			RAnkle			RBigToe			RSmallToe			RHeel			LHip			LKnee			LAnkle			LBigToe			LSmallToe			LHeel			Neck			Head			Nose			RShoulder			RElbow			RWrist			RThumb			RIndex			RPinky			LShoulder			LElbow			LWrist			LThumb			LIndex			LPinky			
		X1	Y1	Z1	X2	Y2	Z2	X3	Y3	Z3	X4	Y4	Z4	X5	Y5	Z5	X6	Y6	Z6	X7	Y7	Z7	X8	Y8	Z8	X9	Y9	Z9	X10	Y10	Z10	X11	Y11	Z11	X12	Y12	Z12	X13	Y13	Z13	X14	Y14	Z14	X15	Y15	Z15	X16	Y16	Z16	X17	Y17	Z17	X18	Y18	Z18	X19	Y19	Z19	X20	Y20	Z20	X21	Y21	Z21	X22	Y22	Z22	X23	Y23	Z23	X24	Y24	Z24	X25	Y25	Z25	X26	Y26	Z26	X27	Y27	Z27	
0	0.0	0.3840658612813508	0.7757744596084917	0.5347759683786675	0.3793379535423553	0.9046216402753363	0.9435327138170766	0.37008506426005505	1.0526724798518106	1.3635471029503636	0.3270412134170294	0.8519184726146238	1.4266279364530758	0.40156190358565325	0.861255267496845	1.426143854601178	0.35909987464145493	1.1756970256793786	1.4106604527477482	0.18816235920211552	0.8004178336081162	0.5426330232405275	0.17748752262379916	0.9419422508175579	0.9411439977370457	0.16785174379812723	1.0627115042191253	1.332027059040421	0.16754704227801062	0.8838454775476026	1.4120809500027491	0.11209493173510876	0.9168643898104634	1.405992222309259	0.20175921906105548	1.1537990155866242	1.40107808157226	0.2824184116594638	0.6289785539718218	-0.00223977802574511	0.2738239617200469	0.5123200187461002	-0.22807792224085358	0.27661101686251355	0.5075994876709404	-0.09333141240496082	0.4591024486848674	0.6506378975101602	0.09747382681027024	0.47502995983084434	0.688309556505886	0.36970739152094945	0.31489149034581604	0.6234115213641682	0.5460348457378771	0.21408404476909282	0.7014148371051829	0.6104181734835101	0.20854010518647514	0.6917976090405418	0.6142371665380162	0.2279312730267657	0.6339888650294935	0.6202683011929949	0.13821158156028102	0.695455740199431	0.07854378232497226	0.1037313381388261	0.6832412878317932	0.34190195422909864	0.19486654365206152	0.6707893604056192	0.5231429308102108	0.2632053449188943	0.6329928465811996	0.6012115544227025	0.2540557459901216	0.6274294834052654	0.6215657726358438	0.22687980018221834	0.6643224626356337	0.6215614622811488
1	0.01818181818181818	0.38586352336536894	0.7600412675409439	0.5375777223444806	0.37687648436476046	0.9045701033086377	0.9478064942005914	0.36857842778092387	1.0492773002111868	1.3583200508975959	0.32811858018666895	0.8695831245902678	1.4284093418070802	0.3963921443288056	0.84837921047465	1.4218376442129046	0.35278472967617147	1.1598774533353458	1.4063668515135404	0.1883556640742333	0.8008726349596437	0.5427279245697854	0.17728110301695463	0.9420928274624845	0.9413626409479473	0.16774932948839422	1.0630578063078988	1.332024384690665	0.16746498807551835	0.8837681456379344	1.4121623638200425	0.116126672689008	0.9336676561959683	1.4065374050672443	0.19605147848966314	1.1402273541126364	1.3940324812041565	0.28240924274992696	0.6294336001479758	-0.0022463109035523172	0.2739293354052802	0.5126118506595786	-0.2279447246326622	0.2764882595242919	0.5076351104294964	-0.09310684009653687	0.45889045539926404	0.6503570468211385	0.09373837087725323	0.47510316792262336	0.6884136304999869	0.3696381487222681	0.314870338014378	0.6232638656375946	0.546025324389872	0.21961774500117398	0.674606523420067	0.6117636827375595	0.21423075381292495	0.6639677902194103	0.6156542900710426	0.22795675556413317	0.6341003827236618	0.6204323357246211	0.13823606317363032	0.6953995545182088	0.0784563512557791	0.10364688854966404	0.6827399474205518	0.3418010634567321	0.19768563920948667	0.6566706844428271	0.5265604877438077	0.26328497451229055	0.6330254633863439	0.6014003943606558	0.2583352501813168	0.6285434363310782	0.6218458225427338	0.22681066919609152	0.6642069314287287	0.6218428898050004
2	0.03636363636363636	0.3858961910416682	0.760015286420447	0.5375377101241982	0.37759154394840555	0.9030857177965125	0.9432889817431076	0.3687375170422975	1.0497272564602729	1.35829325697024	0.3277097904844501	0.8685905600822749	1.4277924785281366	0.3963673330847534	0.847915550512491	1.421506840433376	0.35900737635728114	1.175912849026843	1.4107250977828265	0.19137039037499673	0.7851856421943244	0.5422693417945397	0.1772798114082708	0.9420738410916537	0.941347107185413	0.16765326039783163	1.063197394756842	1.3320672457385208	0.16751793888689567	0.8840961800221627	1.4120280730670467	0.11609079057613035	0.9332617424405604	1.406067231142494	0.19575820310217612	1.1506861285480199	1.4017369600087914	0.28471515984687906	0.615646178641196	-0.00020118504910301985	0.27393031166678156	0.5125234980346581	-0.22795700816526107	0.2764723806750266	0.5077026281967671	-0.09308318342792654	0.4588982191481198	0.6501946221987345	0.09372785013280557	0.47513912603619385	0.688505033670964	0.3696733628316785	0.3149053326340319	0.6233428940053748	0.5460382408012536	0.22009718132129247	0.6742219265749468	0.6091203816818825	0.2113219443841704	0.6781910503241962	0.616474958239444	0.228035557711133	0.6341924674543812	0.6205111691414358	0.13820827994077217	0.6954988739802107	0.07842897129481538	0.09900733168186618	0.6687684663698906	0.33872968158540295	0.1977223343118339	0.6566422672699416	0.5265713654076472	0.25920694546889606	0.6216776571815631	0.6008589903430765	0.2584493648486111	0.6282672279349292	0.6216942436462853	0.2268217313188287	0.6641872054868059	0.6217822084263537
3	0.05454545454545454	0.38606966342830257	0.7598614912017161	0.5417478051511646	0.377537226054463	0.9029679486801084	0.943319275950406	0.3687177977408976	1.0495373822239646	1.358199692621303	0.32753378628348445	0.8697823602197658	1.4244935412458788	0.3945676522342358	0.86589016537897	1.4270377113210635	0.35895084075515976	1.1757306949419173	1.4106167396595646	0.1913729485066947	0.7851457833708998	0.5424826224518144	0.17729002904260713	0.9418592441486692	0.9413062356566154	0.16772385084066158	1.063364044902551	1.3321392626407893	0.16752143179342657	0.8844024487014654	1.4121273579260494	0.11613835235255587	0.9339343580227055	1.4064214422837877	0.19594877143420808	1.1507012325709576	1.4010274959862856	0.2847284034605042	0.6159839340066333	-0.00019335140713285746	0.27588456517574395	0.500337175472466	-0.22509189186385434	0.27647709370168877	0.5077459409646189	-0.09307869545940704	0.45887083114611765	0.6502551754192368	0.09371206926836458	0.47515208710831197	0.6884799963108802	0.369659027014255	0.31418891339934263	0.6211463668105409	0.5422631153646581	0.21957450290785116	0.6752840719545683	0.6119372602627475	0.21134121264395006	0.6783122606376077	0.6165331453701678	0.22807504653461383	0.6341659731500986	0.6204624698905711	0.138208282751836	0.6954926423221461	0.07845764885868647	0.10354530179606383	0.682858969263977	0.34180720195800357	0.1977992985378604	0.6567408843845498	0.5266666939316409	0.26419040650148207	0.6332491959939243	0.6053034597863338	0.2585783331534015	0.6287994397178113	0.6218758456046315	0.22676558364300226	0.6643202059147402	0.6217321004425532
